<svg width="60" height="60" viewBox="0 0 81 81" fill="none" xmlns="http://www.w3.org/2000/svg">
<g clip-path="url(#clip0)">
<path d="M75.4598 49.0836L68.7094 40.9831C68.445 40.6871 68.0673 40.5177 67.6698 40.5177C67.2729 40.5177 66.8952 40.6871 66.6309 40.9831L59.8804 49.0836C59.5449 49.4864 59.4724 50.0474 59.6952 50.522C59.918 50.996 60.3953 51.2992 60.9194 51.2979H63.0665C61.0684 59.4393 53.8314 65.7171 44.7184 67.1753V32.3968H56.8691C57.6154 32.3968 58.2192 31.7922 58.2192 31.0467V25.6463C58.2192 24.9007 57.6154 24.2962 56.8691 24.2962H44.7184V20.8129C49.5109 18.8748 52.2579 13.812 51.2704 8.73731C50.2828 3.66329 45.8377 0 40.6681 0C35.4992 0 31.054 3.66329 30.0665 8.73731C29.079 13.812 31.826 18.8748 36.6179 20.8129V24.2962H24.4671C23.7215 24.2962 23.117 24.9007 23.117 25.6463V31.0467C23.117 31.7922 23.7215 32.3968 24.4671 32.3968H36.6179V67.1753C27.5048 65.7171 20.2685 59.4393 18.2704 51.2979H20.4169C20.9416 51.2992 21.4189 50.996 21.6417 50.522C21.8645 50.0474 21.792 49.4864 21.4564 49.0836L14.706 40.9831C14.4417 40.6871 14.0639 40.5177 13.6664 40.5177C13.2696 40.5177 12.8918 40.6871 12.6275 40.9831L5.87708 49.0836C5.54153 49.4864 5.46902 50.0474 5.69184 50.522C5.91465 50.996 6.39193 51.2992 6.91601 51.2979H9.92733C11.8984 63.8541 22.8474 73.7226 36.6179 75.3569V76.9495C36.6212 77.3075 36.7609 77.6509 37.0094 77.908L39.7096 80.6082C40.2423 81.1303 41.0946 81.1303 41.6273 80.6082L44.3274 77.908C44.576 77.6509 44.7157 77.3075 44.7184 76.9495V75.3569C58.4895 73.7226 69.4385 63.8541 71.4096 51.2979H74.4202C74.945 51.2992 75.4222 50.996 75.6451 50.522C75.8679 50.0474 75.7954 49.4864 75.4598 49.0836ZM40.6681 14.8457C38.4314 14.8457 36.6179 13.0321 36.6179 10.7954C36.6179 8.55866 38.4314 6.74515 40.6681 6.74515C42.9055 6.74515 44.7184 8.55866 44.7184 10.7954C44.7184 13.0321 42.9055 14.8457 40.6681 14.8457Z" fill="white"/>
</g>
<defs>
<clipPath id="clip0">
<rect width="81" height="81" fill="white"/>
</clipPath>
</defs>
</svg>
