<svg width="25" height="25" viewBox="0 0 30 35" fill="none" xmlns="http://www.w3.org/2000/svg">
<mask id="mask0" mask-type="alpha" maskUnits="userSpaceOnUse" x="0" y="0" width="30" height="35">
<rect width="30" height="35" fill="white"/>
</mask>
<g mask="url(#mask0)">
<path fill-rule="evenodd" clip-rule="evenodd" d="M27.5 5.10418H26.25C26.25 4.29918 25.69 3.64587 25 3.64587C24.31 3.64587 23.75 4.29918 23.75 5.10418H21.25C21.25 4.29918 20.69 3.64587 20 3.64587C19.31 3.64587 18.7501 4.29918 18.7501 5.10418H16.25C16.25 4.29918 15.6901 3.64587 15.0001 3.64587C14.3101 3.64587 13.7501 4.29918 13.7501 5.10418H11.25C11.25 4.29918 10.69 3.64587 10 3.64587C9.31002 3.64587 8.75004 4.29918 8.75004 5.10418H6.25002C6.25002 4.29918 5.69004 3.64587 5.00004 3.64587C4.31004 3.64587 3.75 4.29918 3.75 5.10418H2.50002C1.12125 5.10418 0 6.41231 0 8.02081V10.9375H30V8.02081C30 6.41231 28.8787 5.10418 27.5 5.10418Z" fill="#767575"/>
<path fill-rule="evenodd" clip-rule="evenodd" d="M0 28.4375C0 30.0461 1.12125 31.3542 2.50002 31.3542H27.5C28.8787 31.3542 30 30.0461 30 28.4375V13.8542H0V28.4375ZM22.4998 15.3125C23.1898 15.3125 23.7498 15.9658 23.7498 16.7708C23.7498 17.5758 23.1898 18.2291 22.4998 18.2291C21.8098 18.2291 21.2498 17.5758 21.2498 16.7708C21.2498 15.9658 21.8098 15.3125 22.4998 15.3125ZM22.4998 19.6875C23.1898 19.6875 23.7498 20.3408 23.7498 21.1458C23.7498 21.9508 23.1898 22.6041 22.4998 22.6041C21.8098 22.6041 21.2498 21.9508 21.2498 21.1458C21.2498 20.3408 21.8098 19.6875 22.4998 19.6875ZM22.4998 24.0625C23.1898 24.0625 23.7498 24.7158 23.7498 25.5208C23.7498 26.3258 23.1898 26.9791 22.4998 26.9791C21.8098 26.9791 21.2498 26.3258 21.2498 25.5208C21.2498 24.7158 21.8098 24.0625 22.4998 24.0625ZM17.5001 15.3125C18.1901 15.3125 18.7501 15.9658 18.7501 16.7708C18.7501 17.5758 18.1901 18.2291 17.5001 18.2291C16.8101 18.2291 16.2502 17.5758 16.2502 16.7708C16.2501 15.9658 16.8101 15.3125 17.5001 15.3125ZM17.5001 19.6875C18.1901 19.6875 18.7501 20.3408 18.7501 21.1458C18.7501 21.9508 18.1901 22.6041 17.5001 22.6041C16.8101 22.6041 16.2502 21.9508 16.2502 21.1458C16.2502 20.3408 16.8101 19.6875 17.5001 19.6875ZM17.5001 24.0625C18.1901 24.0625 18.7501 24.7158 18.7501 25.5208C18.7501 26.3258 18.1901 26.9791 17.5001 26.9791C16.8101 26.9791 16.2502 26.3258 16.2502 25.5208C16.2502 24.7158 16.8101 24.0625 17.5001 24.0625ZM12.5 15.3125C13.19 15.3125 13.75 15.9658 13.75 16.7708C13.75 17.5758 13.19 18.2291 12.5 18.2291C11.81 18.2291 11.25 17.5758 11.25 16.7708C11.25 15.9658 11.81 15.3125 12.5 15.3125ZM12.5 19.6875C13.19 19.6875 13.75 20.3408 13.75 21.1458C13.75 21.9508 13.19 22.6041 12.5 22.6041C11.81 22.6041 11.25 21.9508 11.25 21.1458C11.25 20.3408 11.81 19.6875 12.5 19.6875ZM12.5 24.0625C13.19 24.0625 13.75 24.7158 13.75 25.5208C13.75 26.3258 13.19 26.9791 12.5 26.9791C11.81 26.9791 11.25 26.3258 11.25 25.5208C11.25 24.7158 11.81 24.0625 12.5 24.0625ZM7.50029 15.3125C8.19028 15.3125 8.75027 15.9658 8.75027 16.7708C8.75027 17.5758 8.19028 18.2291 7.50029 18.2291C6.81029 18.2291 6.25031 17.5758 6.25031 16.7708C6.25031 15.9658 6.81029 15.3125 7.50029 15.3125ZM7.50029 19.6875C8.19028 19.6875 8.75027 20.3408 8.75027 21.1458C8.75027 21.9508 8.19028 22.6041 7.50029 22.6041C6.81029 22.6041 6.25031 21.9508 6.25031 21.1458C6.25031 20.3408 6.81029 19.6875 7.50029 19.6875ZM7.50029 24.0625C8.19028 24.0625 8.75027 24.7158 8.75027 25.5208C8.75027 26.3258 8.19028 26.9791 7.50029 26.9791C6.81029 26.9791 6.25031 26.3258 6.25031 25.5208C6.25031 24.7158 6.81029 24.0625 7.50029 24.0625Z" fill="#767575"/>
</g>
</svg>
