<svg width="15" height="16" viewBox="0 0 21 23" fill="none" xmlns="http://www.w3.org/2000/svg">
<g opacity="0.48">
<mask id="mask0" mask-type="alpha" maskUnits="userSpaceOnUse" x="0" y="0" width="21" height="23">
<rect width="20.3411" height="22.8115" fill="white"/>
</mask>
<g mask="url(#mask0)">
<path fill-rule="evenodd" clip-rule="evenodd" d="M18.646 3.32668H17.7985C17.7985 2.80202 17.4188 2.37622 16.9509 2.37622C16.4831 2.37622 16.1034 2.80202 16.1034 3.32668H14.4083C14.4083 2.80202 14.0286 2.37622 13.5608 2.37622C13.0929 2.37622 12.7132 2.80202 12.7132 3.32668H11.0181C11.0181 2.80202 10.6384 2.37622 10.1706 2.37622C9.70275 2.37622 9.32306 2.80202 9.32306 3.32668H7.62792C7.62792 2.80202 7.24823 2.37622 6.78038 2.37622C6.31254 2.37622 5.93285 2.80202 5.93285 3.32668H4.23774C4.23774 2.80202 3.85806 2.37622 3.39021 2.37622C2.92237 2.37622 2.54264 2.80202 2.54264 3.32668H1.69511C0.760249 3.32668 0 4.17926 0 5.22761V7.12859H20.3411V5.22761C20.3411 4.17926 19.5809 3.32668 18.646 3.32668Z" fill="black"/>
<path fill-rule="evenodd" clip-rule="evenodd" d="M0 18.5343C0 19.5827 0.760249 20.4353 1.69511 20.4353H18.646C19.5809 20.4353 20.3411 19.5827 20.3411 18.5343V9.02954H0V18.5343ZM15.2559 9.98004C15.7237 9.98004 16.1034 10.4058 16.1034 10.9305C16.1034 11.4552 15.7237 11.881 15.2559 11.881C14.788 11.881 14.4083 11.4552 14.4083 10.9305C14.4083 10.4058 14.788 9.98004 15.2559 9.98004ZM15.2559 12.8315C15.7237 12.8315 16.1034 13.2573 16.1034 13.7819C16.1034 14.3066 15.7237 14.7324 15.2559 14.7324C14.788 14.7324 14.4083 14.3066 14.4083 13.7819C14.4083 13.2573 14.788 12.8315 15.2559 12.8315ZM15.2559 15.6829C15.7237 15.6829 16.1034 16.1087 16.1034 16.6334C16.1034 17.1581 15.7237 17.5839 15.2559 17.5839C14.788 17.5839 14.4083 17.1581 14.4083 16.6334C14.4083 16.1087 14.788 15.6829 15.2559 15.6829ZM11.8657 9.98004C12.3336 9.98004 12.7132 10.4058 12.7132 10.9305C12.7132 11.4552 12.3336 11.881 11.8657 11.881C11.3979 11.881 11.0182 11.4552 11.0182 10.9305C11.0181 10.4058 11.3979 9.98004 11.8657 9.98004ZM11.8657 12.8315C12.3336 12.8315 12.7132 13.2573 12.7132 13.7819C12.7132 14.3066 12.3336 14.7324 11.8657 14.7324C11.3979 14.7324 11.0182 14.3066 11.0182 13.7819C11.0182 13.2573 11.3979 12.8315 11.8657 12.8315ZM11.8657 15.6829C12.3336 15.6829 12.7132 16.1087 12.7132 16.6334C12.7132 17.1581 12.3336 17.5839 11.8657 17.5839C11.3979 17.5839 11.0182 17.1581 11.0182 16.6334C11.0182 16.1087 11.3979 15.6829 11.8657 15.6829ZM8.47543 9.98004C8.94327 9.98004 9.32296 10.4058 9.32296 10.9305C9.32296 11.4552 8.94327 11.881 8.47543 11.881C8.00758 11.881 7.62789 11.4552 7.62789 10.9305C7.62789 10.4058 8.00758 9.98004 8.47543 9.98004ZM8.47543 12.8315C8.94327 12.8315 9.32296 13.2573 9.32296 13.7819C9.32296 14.3066 8.94327 14.7324 8.47543 14.7324C8.00758 14.7324 7.62789 14.3066 7.62789 13.7819C7.62789 13.2573 8.00758 12.8315 8.47543 12.8315ZM8.47543 15.6829C8.94327 15.6829 9.32296 16.1087 9.32296 16.6334C9.32296 17.1581 8.94327 17.5839 8.47543 17.5839C8.00758 17.5839 7.62789 17.1581 7.62789 16.6334C7.62789 16.1087 8.00758 15.6829 8.47543 15.6829ZM5.08525 9.98004C5.5531 9.98004 5.93279 10.4058 5.93279 10.9305C5.93279 11.4552 5.5531 11.881 5.08525 11.881C4.61741 11.881 4.23772 11.4552 4.23772 10.9305C4.23772 10.4058 4.61741 9.98004 5.08525 9.98004ZM5.08525 12.8315C5.5531 12.8315 5.93279 13.2573 5.93279 13.7819C5.93279 14.3066 5.5531 14.7324 5.08525 14.7324C4.61741 14.7324 4.23772 14.3066 4.23772 13.7819C4.23772 13.2573 4.61741 12.8315 5.08525 12.8315ZM5.08525 15.6829C5.5531 15.6829 5.93279 16.1087 5.93279 16.6334C5.93279 17.1581 5.5531 17.5839 5.08525 17.5839C4.61741 17.5839 4.23772 17.1581 4.23772 16.6334C4.23772 16.1087 4.61741 15.6829 5.08525 15.6829Z" fill="black"/>
</g>
</g>
</svg>
