<svg width="18" height="18" viewBox="0 0 18 18" fill="none" xmlns="http://www.w3.org/2000/svg">
<g opacity="0.9">
<mask id="mask0" mask-type="alpha" maskUnits="userSpaceOnUse" x="0" y="0" width="18" height="19">
<rect y="0.000732422" width="18" height="18" fill="white"/>
</mask>
<g mask="url(#mask0)">
<path fill-rule="evenodd" clip-rule="evenodd" d="M9.23456 0.000732422C6.32612 0.000732422 3.95996 2.36689 3.95996 5.27533C3.95996 6.0685 4.13177 6.83079 4.47047 7.54154C4.47729 7.55674 4.48445 7.57167 4.49208 7.5866L8.47731 15.3028C8.62362 15.586 8.91576 15.764 9.23449 15.764C9.55328 15.764 9.84542 15.5861 9.99166 15.3028L13.9758 7.58872C13.9827 7.57542 13.9891 7.56199 13.9952 7.54842C14.3362 6.83563 14.509 6.07102 14.509 5.27533C14.5092 2.36689 12.143 0.000732422 9.23456 0.000732422V0.000732422ZM9.23447 8.03634C7.71214 8.03634 6.47363 6.79784 6.47363 5.27551C6.47363 3.75325 7.71214 2.51474 9.23447 2.51474C10.7568 2.51474 11.9953 3.75325 11.9953 5.27551C11.9953 6.79784 10.7568 8.03634 9.23447 8.03634V8.03634Z" fill="white"/>
<path fill-rule="evenodd" clip-rule="evenodd" d="M11.2662 16.9778H7.20273C6.92028 16.9778 6.69141 17.2067 6.69141 17.4891C6.69141 17.7716 6.92028 18.0004 7.20273 18.0004H11.2662C11.5487 18.0004 11.7776 17.7716 11.7776 17.4891C11.7776 17.2067 11.5486 16.9778 11.2662 16.9778V16.9778Z" fill="white"/>
</g>
</g>
</svg>
