<svg width="32" height="32" viewBox="0 0 32 32" fill="none" xmlns="http://www.w3.org/2000/svg">
<mask id="mask0" mask-type="alpha" maskUnits="userSpaceOnUse" x="0" y="0" width="32" height="32">
<rect width="32" height="32" fill="white"/>
</mask>
<g mask="url(#mask0)">
<path fill-rule="evenodd" clip-rule="evenodd" d="M24.2501 0.66889C24.4563 0.71401 24.6302 0.862164 24.6174 1.14568C24.5466 2.56312 24.4693 3.98688 24.1149 5.36566C24.16 5.75221 23.9216 6.20313 23.477 6.14522C20.3072 5.72649 19.154 8.58062 18.7416 11.7954C20.2491 11.8857 21.7439 12.0016 23.2 12.1304C23.4706 12.1561 23.6187 12.3431 23.6509 12.5491C23.7282 12.6007 23.799 12.678 23.8312 12.794C24.0889 13.6316 24.0954 14.5721 24.1148 15.4484C24.1277 16.1377 24.2115 16.9173 23.7475 17.4649C23.8055 17.7871 23.6315 18.1607 23.1998 18.1736C21.6536 18.1929 20.088 18.2187 18.516 18.2317C18.516 18.3863 18.516 18.5409 18.5095 18.6826C18.4 22.8896 18.5804 27.0838 18.5352 31.2843C18.5288 31.613 18.2647 31.7353 18.0263 31.6903C17.9941 31.7095 17.9619 31.7354 17.9232 31.7482C17.1307 31.9995 16.2352 31.9609 15.4107 31.9866C14.5925 32.0058 13.7872 32.0252 12.9753 31.8836C12.7755 31.9479 12.5307 31.8836 12.4857 31.6194C11.7577 27.4575 11.8802 23.0637 11.8994 18.8501C11.8994 18.586 11.8994 18.3219 11.8994 18.0576C10.6173 17.9739 9.34173 17.845 8.08537 17.6646C7.8921 17.6324 7.79539 17.5035 7.7826 17.3554C7.31874 17.0462 7.42824 16.2344 7.42178 15.7254C7.40238 14.6302 7.28009 13.361 7.59565 12.3044C7.62784 12.1949 7.70515 12.1241 7.80186 12.0725C7.85977 12.0081 7.94354 11.963 8.05951 11.95C9.34158 11.7954 10.6623 11.7052 11.996 11.6601C12.0604 10.4488 12.17 9.2376 12.3568 8.05224C13.2394 2.39556 18.0908 -1.03839 23.8183 0.282339C24.0568 0.340253 24.1921 0.494873 24.2501 0.66889V0.66889Z" fill="white"/>
</g>
</svg>
