<svg width="32" height="32" viewBox="0 0 32 32" fill="none" xmlns="http://www.w3.org/2000/svg">
<mask id="mask0" mask-type="alpha" maskUnits="userSpaceOnUse" x="0" y="0" width="32" height="32">
<rect width="32" height="32" fill="white"/>
</mask>
<g mask="url(#mask0)">
<path fill-rule="evenodd" clip-rule="evenodd" d="M22.467 0H9.53297C4.27647 0 0 4.27647 0 9.53297V22.467C0 27.7235 4.27647 32 9.53297 32H22.467C27.7235 32 32 27.7235 32 22.467V9.53297C31.9999 4.27647 27.7235 0 22.467 0V0ZM28.7808 22.4671C28.7808 25.9541 25.954 28.7809 22.4671 28.7809H9.53301C6.04604 28.7809 3.21924 25.9541 3.21924 22.4671V9.53304C3.21924 6.04601 6.04604 3.21927 9.53301 3.21927H22.4671C25.954 3.21927 28.7808 6.04601 28.7808 9.53304L28.7808 22.4671V22.4671V22.4671Z" fill="url(#paint0_linear)"/>
<path fill-rule="evenodd" clip-rule="evenodd" d="M16 7.72363C11.4364 7.72363 7.72363 11.4364 7.72363 15.9999C7.72363 20.5634 11.4364 24.2763 16 24.2763C20.5636 24.2763 24.2763 20.5635 24.2763 15.9999C24.2763 11.4363 20.5636 7.72363 16 7.72363V7.72363ZM16 21.0573C13.207 21.0573 10.9429 18.7931 10.9429 16.0001C10.9429 13.2071 13.2071 10.943 16 10.943C18.793 10.943 21.0572 13.2071 21.0572 16.0001C21.0572 18.7931 18.793 21.0573 16 21.0573V21.0573Z" fill="url(#paint1_linear)"/>
<path fill-rule="evenodd" clip-rule="evenodd" d="M22.3091 7.78586C22.3091 6.69061 23.197 5.80273 24.2922 5.80273C25.3875 5.80273 26.2753 6.69061 26.2753 7.78586C26.2753 8.88111 25.3875 9.76898 24.2922 9.76898C23.197 9.76898 22.3091 8.88111 22.3091 7.78586Z" fill="white"/>
</g>
<defs>
<linearGradient id="paint0_linear" x1="31.8291" y1="31.9068" x2="31.8291" y2="0.248541" gradientUnits="userSpaceOnUse">
<stop stop-color="white"/>
<stop offset="0.3" stop-color="white"/>
<stop offset="0.6" stop-color="white"/>
<stop offset="1" stop-color="white"/>
</linearGradient>
<linearGradient id="paint1_linear" x1="31.8291" y1="31.9067" x2="31.8291" y2="0.248507" gradientUnits="userSpaceOnUse">
<stop stop-color="white"/>
<stop offset="0.3" stop-color="white"/>
<stop offset="0.6" stop-color="white"/>
<stop offset="1" stop-color="white"/>
</linearGradient>
</defs>
</svg>
