<svg width="15" height="16" viewBox="0 0 21 24" fill="none" xmlns="http://www.w3.org/2000/svg">
<mask id="mask0" mask-type="alpha" maskUnits="userSpaceOnUse" x="0" y="0" width="21" height="24">
<rect y="0.466431" width="20.3411" height="22.8115" fill="white"/>
</mask>
<g mask="url(#mask0)">
<path opacity="0.48" fill-rule="evenodd" clip-rule="evenodd" d="M10.1706 0.466431C6.88386 0.466431 4.20996 3.46507 4.20996 7.15095C4.20996 8.15615 4.40411 9.1222 4.78687 10.0229C4.79457 10.0422 4.80266 10.0611 4.81129 10.08L9.31485 19.8589C9.48018 20.2178 9.81032 20.4433 10.1705 20.4433C10.5308 20.4433 10.8609 20.2179 11.0262 19.8589L15.5285 10.0827C15.5363 10.0659 15.5435 10.0489 15.5504 10.0317C15.9357 9.12833 16.131 8.15934 16.131 7.15095C16.1312 3.46507 13.4573 0.466431 10.1706 0.466431V0.466431ZM10.1705 10.6498C8.45022 10.6498 7.05063 9.08021 7.05063 7.15096C7.05063 5.22179 8.45022 3.65222 10.1705 3.65222C11.8909 3.65222 13.2905 5.22179 13.2905 7.15096C13.2905 9.08021 11.8909 10.6498 10.1705 10.6498V10.6498Z" fill="black"/>
<path opacity="0.48" fill-rule="evenodd" clip-rule="evenodd" d="M12.4667 21.9819H7.87471C7.55551 21.9819 7.29688 22.272 7.29688 22.6299C7.29688 22.9879 7.55551 23.278 7.87471 23.278H12.4667C12.7859 23.278 13.0445 22.9879 13.0445 22.6299C13.0445 22.272 12.7858 21.9819 12.4667 21.9819V21.9819Z" fill="black"/>
</g>
</svg>
