<svg width="32" height="32" viewBox="0 0 32 32" fill="none" xmlns="http://www.w3.org/2000/svg">
<path d="M29.3333 15.9998C29.3333 14.2489 28.9884 12.5151 28.3184 10.8973C27.6483 9.27978 26.6663 7.80973 25.4281 6.57178C24.19 5.33349 22.7201 4.3514 21.1024 3.68148C19.4848 3.01122 17.7509 2.6665 16 2.6665V5.33317C17.4008 5.33317 18.7879 5.60921 20.082 6.14502C21.3761 6.68116 22.552 7.46696 23.5425 8.45752C24.5329 9.44776 25.3187 10.6239 25.8547 11.9178C26.3908 13.2121 26.6667 14.5992 26.6667 15.9998H29.3333Z" fill="white"/>
<path d="M2.6665 13.3335V6.66683C2.6665 5.9305 3.26346 5.3335 3.99984 5.3335H10.6665C11.4029 5.3335 11.9998 5.9305 11.9998 6.66683V12.0002C11.9998 12.7365 11.4029 13.3335 10.6665 13.3335H7.99984C7.99984 19.2244 12.7755 24.0002 18.6665 24.0002V21.3335C18.6665 20.5972 19.2634 20.0002 19.9998 20.0002H25.3332C26.0696 20.0002 26.6665 20.5972 26.6665 21.3335V28.0002C26.6665 28.7364 26.0696 29.3335 25.3332 29.3335H18.6665C9.82996 29.3335 2.6665 22.17 2.6665 13.3335Z" fill="white"/>
<path d="M23.3911 12.9385C23.7931 13.9092 24 14.9496 24 16H21.6C21.6 15.2647 21.4552 14.5364 21.1737 13.8571C20.8923 13.1774 20.4799 12.5602 19.9597 12.0404C19.4397 11.5202 18.8225 11.1077 18.1431 10.8262C17.4636 10.5449 16.7353 10.4001 16 10.4001V8C17.0505 8 18.0908 8.20703 19.0615 8.60905C20.032 9.01107 20.914 9.60027 21.6568 10.3431C22.3997 11.0859 22.9891 11.9678 23.3911 12.9385Z" fill="white"/>
</svg>
