<svg width="15" height="15" viewBox="0 0 24 24" fill="none" xmlns="http://www.w3.org/2000/svg">
<g opacity="0.48">
<mask id="mask0" mask-type="alpha" maskUnits="userSpaceOnUse" x="0" y="0" width="24" height="24">
<rect width="24" height="24" fill="white"/>
</mask>
<g mask="url(#mask0)">
<path fill-rule="evenodd" clip-rule="evenodd" d="M23.3579 11.3177H21.2776C21.1442 9.25188 20.3307 7.36832 19.0586 5.88971L20.5254 4.4229C20.7761 4.17207 20.7761 3.76559 20.5254 3.51476C20.2745 3.26408 19.8681 3.26408 19.6172 3.51476L18.1423 4.97627C16.6606 3.66967 14.7424 2.82887 12.6555 2.68495V0.642141C12.6555 0.287518 12.3679 0 12.0133 0C11.6587 0 11.3712 0.287518 11.3712 0.642141V2.68487C9.28423 2.82879 7.3928 3.66959 5.91107 4.97619L4.45629 3.51468C4.20546 3.264 3.80227 3.264 3.55144 3.51468C3.30068 3.76551 3.30237 4.17199 3.55312 4.42282L5.02082 5.88963C3.74866 7.36832 2.93603 9.25188 2.8027 11.3177H0.642141C0.287518 11.3177 0 11.6052 0 11.9599C0 12.3145 0.287518 12.602 0.642141 12.602H2.80784C2.95971 14.6765 3.79834 16.563 5.09659 18.0353L3.55481 19.5771C3.30405 19.8279 3.30405 20.2344 3.55481 20.4852C3.68027 20.6106 3.8445 20.6733 4.00888 20.6733C4.17327 20.6733 4.33758 20.6106 4.46296 20.4852L5.99671 18.9382C7.46577 20.2021 9.3645 21.0133 11.3713 21.1545V23.3579C11.3713 23.7125 11.6588 24 12.0134 24C12.368 24 12.6555 23.7125 12.6555 23.3579V21.1546C14.7425 21.0134 16.5878 20.2021 18.0567 18.9382L19.6106 20.4853C19.736 20.6107 19.9036 20.6734 20.068 20.6734C20.2324 20.6734 20.3984 20.6107 20.5238 20.4853C20.7745 20.2345 20.7753 19.828 20.5246 19.5772L18.9833 18.0353C20.2815 16.563 21.1206 14.6764 21.2724 12.602H23.3579C23.7125 12.602 24 12.3145 24 11.9599C24 11.6052 23.7125 11.3177 23.3579 11.3177ZM18.7004 11.3177H13.6304L17.2353 7.71282C18.0493 8.71633 18.5785 9.95895 18.7004 11.3177ZM16.308 6.79698L12.6553 10.4497V5.26235C14.1001 5.39471 15.2993 5.94992 16.308 6.79698ZM11.371 5.26235V10.4497L7.71826 6.79698C8.72698 5.94992 10.0064 5.39471 11.371 5.26235ZM6.84501 7.71282L10.45 11.3177H5.37988C5.50173 9.95895 6.03093 8.71633 6.84501 7.71282ZM5.38623 12.602H10.5304L6.91782 16.2146C6.07894 15.2156 5.52533 13.9694 5.38623 12.602ZM7.80664 17.1151L11.3714 13.5504V18.5772C10.0871 18.4486 8.80027 17.9213 7.80664 17.1151ZM12.6553 18.5771V13.5503L16.22 17.115C15.2264 17.9212 14.0198 18.4486 12.6553 18.5771ZM17.1629 16.2146L13.5503 12.602H18.6945C18.5554 13.9694 18.0019 15.2156 17.1629 16.2146Z" fill="black"/>
</g>
</g>
</svg>
