<svg width="32" height="28" viewBox="0 0 32 28" fill="none" xmlns="http://www.w3.org/2000/svg">
<path fill-rule="evenodd" clip-rule="evenodd" d="M31.4911 3.25727C30.7801 3.58891 30.042 3.85055 29.2847 4.03997C30.1192 3.20581 30.7466 2.16246 31.1006 0.997887V0.997887C31.2016 0.665422 30.8583 0.377932 30.5729 0.555941V0.555941C29.5194 1.21332 28.3845 1.70648 27.1998 2.02187C27.131 2.04017 27.0601 2.04945 26.989 2.04945C26.7732 2.04945 26.5634 1.96516 26.3983 1.81218C25.1379 0.643592 23.5167 0 21.8336 0C21.1053 0 20.37 0.119412 19.648 0.354952C17.411 1.0848 15.685 3.02583 15.1434 5.42063C14.9403 6.31888 14.8853 7.21796 14.9798 8.09282C14.9907 8.19336 14.9455 8.26353 14.9177 8.29644C14.8687 8.35413 14.7994 8.38721 14.7274 8.38721C14.7193 8.38721 14.7111 8.3868 14.7029 8.38598C9.80622 7.90743 5.39064 5.42588 2.26947 1.39855V1.39855C2.11031 1.19313 1.8051 1.21833 1.67824 1.44722V1.44722C1.06704 2.55024 0.744043 3.81181 0.744043 5.09555C0.744043 7.06293 1.49545 8.91697 2.80063 10.2686C2.25177 10.1317 1.72053 9.91609 1.22706 9.62777V9.62777C0.988321 9.48826 0.694579 9.66758 0.691224 9.95482V9.95482C0.657051 12.8775 2.28375 15.4781 4.72061 16.6492C4.67153 16.6504 4.62246 16.651 4.57331 16.651C4.18703 16.651 3.79592 16.6118 3.41098 16.5344V16.5344C3.14212 16.4804 2.91626 16.7486 2.99974 17.0228V17.0228C3.7907 19.6204 5.91688 21.5351 8.46124 21.9698C6.34957 23.461 3.89048 24.2475 1.33106 24.2475L0.533157 24.247C0.287318 24.247 0.0793963 24.4156 0.0167468 24.6661C-0.0449664 24.9128 0.0687077 25.173 0.278346 25.3013C3.16241 27.0669 6.45209 28 9.79319 28C12.7177 28 15.4534 27.3895 17.9243 26.1855C20.1894 25.0818 22.1911 23.504 23.8736 21.496C25.4411 19.6254 26.6667 17.4661 27.5165 15.078C28.3266 12.8017 28.7548 10.3727 28.7548 8.05375V7.94329C28.7547 7.57094 28.9148 7.22058 29.1941 6.98209C30.254 6.07686 31.177 5.01126 31.9373 3.81493V3.81493C32.138 3.49905 31.8214 3.10314 31.4911 3.25727V3.25727V3.25727Z" fill="white"/>
</svg>
